<svg xmlns="http://www.w3.org/2000/svg" width="1200" height="630" viewBox="0 0 1200 630">
  <defs>
    <linearGradient id="bg" x1="0" y1="0" x2="1" y2="1">
      <stop offset="0%" stop-color="#eef2ff"/>
      <stop offset="48%" stop-color="#ffffff"/>
      <stop offset="100%" stop-color="#ecfdf5"/>
    </linearGradient>
    <filter id="shadow" x="-20%" y="-20%" width="140%" height="140%">
      <feDropShadow dx="0" dy="18" stdDeviation="24" flood-color="#312e81" flood-opacity=".18"/>
    </filter>
  </defs>
  <rect width="1200" height="630" fill="url(#bg)"/>
  <g opacity=".22" stroke="#94a3b8" stroke-width="1">
    <path d="M0 90h1200M0 180h1200M0 270h1200M0 360h1200M0 450h1200M0 540h1200"/>
    <path d="M120 0v630M240 0v630M360 0v630M480 0v630M600 0v630M720 0v630M840 0v630M960 0v630M1080 0v630"/>
  </g>
  <g filter="url(#shadow)">
    <rect x="730" y="120" width="330" height="80" rx="14" fill="#fff" stroke="#c7d2fe"/>
    <rect x="730" y="260" width="330" height="80" rx="14" fill="#fff" stroke="#c7d2fe"/>
    <rect x="730" y="400" width="330" height="80" rx="14" fill="#fff" stroke="#c7d2fe"/>
    <path d="M1060 160 C1110 160 1110 300 1060 300" fill="none" stroke="#4f46e5" stroke-width="6"/>
    <path d="M1060 300 C1110 300 1110 440 1060 440" fill="none" stroke="#4f46e5" stroke-width="6"/>
    <circle cx="730" cy="160" r="12" fill="#3b82f6"/>
    <circle cx="1060" cy="160" r="12" fill="#e11d48"/>
    <circle cx="730" cy="300" r="12" fill="#3b82f6"/>
    <circle cx="1060" cy="300" r="12" fill="#e11d48"/>
    <circle cx="730" cy="440" r="12" fill="#3b82f6"/>
    <rect x="760" y="145" width="180" height="12" rx="6" fill="#64748b"/>
    <rect x="760" y="285" width="220" height="12" rx="6" fill="#64748b"/>
    <rect x="760" y="425" width="160" height="12" rx="6" fill="#64748b"/>
  </g>
  <text x="120" y="190" font-family="Arial, Helvetica, sans-serif" font-size="78" font-weight="800" fill="#0f172a">FlowWBS</text>
  <text x="120" y="260" font-family="Arial, Helvetica, sans-serif" font-size="34" font-weight="700" fill="#4f46e5">無料のAI WBS・アロー図・ガント作成ツール</text>
  <text x="120" y="330" font-family="Arial, Helvetica, sans-serif" font-size="27" fill="#475569">ChatGPTのJSONから、WBS・依存関係・日程表をすばやく可視化。</text>
  <text x="120" y="385" font-family="Arial, Helvetica, sans-serif" font-size="25" fill="#475569">ブラウザだけで保存・共有・画像出力まで。</text>
  <rect x="120" y="450" width="300" height="54" rx="27" fill="#111827"/>
  <text x="154" y="486" font-family="Arial, Helvetica, sans-serif" font-size="22" font-weight="700" fill="#fff">Made by たあたる</text>
  <text x="440" y="484" font-family="Arial, Helvetica, sans-serif" font-size="22" font-weight="700" fill="#0f172a">@taataru_group</text>
</svg>
